<svg id="svg" version="1.1" xmlns="http://www.w3.org/2000/svg" xmlns:xlink="http://www.w3.org/1999/xlink" width="400" height="400" viewBox="0, 0, 400,400"><g id="svgg"><path id="path0" d="M70.010 10.818 C 38.300 15.154,14.147 40.070,10.644 72.059 C 9.938 78.508,10.092 149.429,10.818 152.511 C 15.037 170.403,38.845 174.098,48.336 158.334 C 51.236 153.518,51.130 155.182,51.134 114.069 C 51.136 90.406,51.283 76.383,51.547 74.755 C 53.240 64.325,60.094 56.212,70.300 52.560 L 73.746 51.327 113.078 51.125 L 152.409 50.922 154.737 50.042 C 174.028 42.743,172.293 14.798,152.291 10.658 C 149.097 9.996,74.963 10.141,70.010 10.818 M246.744 10.785 C 228.970 15.096,225.703 40.373,241.862 48.561 C 246.886 51.107,243.421 50.908,286.529 51.128 L 325.860 51.329 329.007 52.400 C 337.671 55.348,344.258 61.935,347.207 70.600 L 348.278 73.746 348.479 113.078 C 348.699 156.185,348.500 152.721,351.045 157.744 C 359.348 174.129,385.167 170.414,388.946 152.291 C 389.658 148.879,389.541 76.175,388.815 70.388 C 384.907 39.257,360.330 14.645,329.310 10.797 C 323.055 10.021,249.938 10.010,246.744 10.785 M89.282 199.213 L 89.282 271.780 103.835 271.780 L 118.387 271.780 118.387 251.335 L 118.387 230.891 125.910 222.810 C 130.047 218.365,133.777 214.291,134.198 213.756 C 135.631 211.934,133.951 209.865,173.232 261.834 L 180.728 271.751 198.132 271.765 C 207.704 271.773,215.536 271.696,215.536 271.595 C 215.536 271.493,212.029 266.581,207.743 260.680 C 172.874 212.674,157.325 191.099,157.325 190.723 C 157.325 190.480,159.936 187.435,163.127 183.956 C 166.318 180.477,179.427 166.204,192.258 152.237 L 215.588 126.844 196.781 126.732 L 177.974 126.620 176.794 127.942 C 176.146 128.669,164.995 140.571,152.016 154.390 C 139.036 168.210,126.302 181.780,123.717 184.547 C 121.132 187.313,118.875 189.577,118.702 189.577 C 118.529 189.577,118.387 175.418,118.387 158.112 L 118.387 126.647 103.835 126.647 L 89.282 126.647 89.282 199.213 M234.022 140.016 L 234.022 153.386 256.146 153.487 L 278.269 153.589 278.385 188.201 C 278.505 224.136,278.376 227.930,276.890 232.273 C 272.810 244.196,258.414 247.832,245.205 240.274 C 242.367 238.650,238.345 235.585,234.156 231.855 L 232.126 230.048 223.811 241.573 L 215.496 253.097 218.596 256.093 C 242.025 278.741,280.875 278.493,298.136 255.585 C 302.064 250.373,304.693 244.094,306.474 235.677 L 307.365 231.465 307.482 179.056 L 307.598 126.647 270.810 126.647 L 234.022 126.647 234.022 140.016 M28.319 231.323 C 19.920 232.180,12.830 238.561,10.824 247.070 C 9.940 250.822,9.944 321.621,10.829 328.822 C 14.708 360.377,39.230 384.899,70.785 388.778 C 77.985 389.663,148.785 389.667,152.536 388.783 C 172.810 384.003,173.843 355.743,153.982 349.215 C 152.744 348.808,144.087 348.653,113.274 348.484 L 74.140 348.270 71.386 347.351 C 61.750 344.133,55.473 337.856,52.256 328.220 L 51.336 325.467 51.122 286.332 C 50.954 255.520,50.799 246.863,50.392 245.624 C 47.278 236.153,38.258 230.309,28.319 231.323 M366.565 231.268 C 358.862 232.227,352.391 237.405,349.564 244.870 L 348.683 247.198 348.471 286.332 C 348.235 329.890,348.418 327.041,345.486 332.989 C 342.843 338.351,338.465 342.684,332.849 345.497 C 327.069 348.393,329.850 348.215,286.332 348.463 C 242.621 348.711,245.564 348.511,240.875 351.548 C 225.510 361.499,229.370 384.609,247.095 388.788 C 250.177 389.515,321.099 389.668,327.547 388.962 C 359.685 385.444,384.555 361.206,388.808 329.257 C 389.525 323.875,389.651 250.704,388.949 247.315 C 387.317 239.431,379.894 232.290,372.468 231.462 C 371.278 231.329,369.951 231.171,369.518 231.110 C 369.086 231.048,367.757 231.120,366.565 231.268 " stroke="none" fill="#040404" fill-rule="evenodd"></path><path id="path1" d="M75.713 9.294 C 41.984 11.403,16.394 34.627,10.329 68.633 C 9.381 73.947,9.098 147.475,10.009 151.857 C 14.378 172.891,42.674 175.256,50.869 155.273 C 51.717 153.204,51.722 153.036,51.948 114.061 C 52.188 72.698,52.132 73.951,53.946 69.223 C 57.114 60.965,65.435 53.878,73.746 52.357 C 75.044 52.120,76.549 51.846,77.089 51.748 C 77.630 51.650,76.922 51.625,75.516 51.693 C 66.248 52.140,56.412 60.091,52.778 70.075 L 51.728 72.960 51.519 112.291 L 51.310 151.622 50.295 154.419 C 43.162 174.069,14.828 172.679,10.633 152.473 C 9.674 147.855,10.315 70.077,11.349 65.487 C 17.291 39.128,36.155 19.028,61.160 12.415 C 68.900 10.367,66.062 10.488,109.892 10.337 C 158.536 10.168,156.271 9.920,162.476 16.099 C 174.772 28.343,167.529 49.081,150.246 51.119 L 147.689 51.421 149.879 51.472 C 154.556 51.583,159.600 49.224,163.476 45.116 C 174.524 33.405,169.653 15.433,153.982 10.083 C 151.805 9.339,85.652 8.673,75.713 9.294 M249.558 9.318 C 236.746 10.656,228.025 23.306,231.242 35.884 C 233.494 44.691,241.825 51.629,249.951 51.465 L 252.311 51.417 249.558 51.118 C 226.819 48.646,224.581 15.391,246.833 10.619 C 251.236 9.674,329.623 10.306,334.106 11.321 C 362.405 17.735,381.872 37.201,388.285 65.501 C 389.287 69.920,389.933 148.366,389.004 152.700 C 384.220 175.004,350.966 172.829,348.489 150.049 L 348.189 147.296 348.136 149.736 C 347.997 156.068,352.970 163.623,359.339 166.759 C 371.612 172.801,386.309 166.267,389.634 153.292 C 390.592 149.553,390.770 76.475,389.837 70.206 C 385.105 38.432,362.550 15.420,330.777 9.951 C 327.218 9.338,254.772 8.774,249.558 9.318 M321.974 51.599 C 322.082 51.774,322.591 51.917,323.106 51.917 C 333.888 51.917,345.274 62.537,347.461 74.633 C 347.893 77.020,348.020 77.337,348.047 76.098 C 348.215 68.604,341.222 58.359,333.163 54.291 C 329.672 52.528,321.304 50.515,321.974 51.599 M88.496 199.017 L 88.496 272.173 103.835 272.173 L 119.174 272.173 119.174 251.726 L 119.174 231.280 127.302 222.523 C 131.773 217.707,135.534 213.730,135.660 213.686 C 135.786 213.643,139.192 217.979,143.229 223.323 C 147.265 228.666,156.005 240.206,162.651 248.968 C 169.297 257.729,175.976 266.534,177.493 268.535 L 180.250 272.173 198.525 272.173 C 213.971 272.173,216.767 272.088,216.590 271.626 C 216.475 271.325,203.255 252.983,187.214 230.866 L 158.048 190.652 159.792 188.836 C 160.752 187.838,169.475 178.348,179.178 167.748 C 188.880 157.148,198.854 146.264,201.341 143.559 C 218.064 125.379,217.142 126.417,216.842 126.117 C 216.700 125.976,207.780 125.860,197.020 125.860 L 177.454 125.860 176.395 127.139 C 175.812 127.842,173.973 129.833,172.308 131.563 C 169.183 134.810,131.378 175.107,123.697 183.378 L 119.371 188.036 119.270 156.948 L 119.169 125.860 103.832 125.860 L 88.496 125.860 88.496 199.017 M233.628 140.018 L 233.628 154.179 255.669 154.179 L 277.710 154.179 277.580 191.445 C 277.465 224.530,277.379 228.915,276.815 230.521 C 270.979 247.134,252.819 247.830,235.829 232.090 C 231.817 228.373,232.171 228.477,230.700 230.589 C 230.062 231.503,226.416 236.588,222.596 241.888 C 213.468 254.554,214.262 252.955,216.135 254.893 C 242.541 282.204,289.633 278.854,303.310 248.691 C 308.629 236.960,308.841 233.970,308.679 173.058 L 308.555 126.057 271.091 125.957 L 233.628 125.856 233.628 140.018 M118.387 157.719 C 118.387 175.025,118.534 189.184,118.714 189.184 C 119.163 189.184,118.999 189.356,157.083 148.771 L 178.212 126.254 197.104 126.254 C 207.494 126.254,215.936 126.405,215.864 126.590 C 215.792 126.775,209.079 134.165,200.946 143.011 C 165.034 182.076,157.326 190.509,157.332 190.724 C 157.336 190.851,170.181 208.653,185.877 230.285 C 201.573 251.917,214.768 270.103,215.199 270.698 L 215.983 271.780 198.278 271.780 L 180.573 271.780 171.566 259.882 C 143.198 222.410,136.001 212.968,135.730 212.870 C 135.461 212.772,125.092 223.711,120.256 229.196 L 118.387 231.314 118.387 251.547 L 118.387 271.780 103.638 271.780 L 88.889 271.780 88.889 199.279 C 88.889 159.403,89.007 126.660,89.151 126.516 C 89.295 126.372,95.932 126.254,103.900 126.254 L 118.387 126.254 118.387 157.719 M307.768 176.991 C 307.768 231.755,307.791 231.102,305.590 239.838 C 296.502 275.910,249.068 284.836,218.369 256.252 C 216.790 254.782,215.552 253.338,215.616 253.043 C 215.785 252.265,231.796 230.100,232.193 230.094 C 232.377 230.091,233.782 231.250,235.315 232.669 C 249.234 245.556,263.443 247.807,272.882 238.619 C 278.055 233.585,278.058 233.557,278.066 190.269 L 278.073 153.792 256.146 153.691 L 234.218 153.589 234.115 139.919 L 234.011 126.250 270.890 126.350 L 307.768 126.450 307.768 176.991 M25.565 230.825 C 18.225 232.742,12.214 238.712,10.366 245.921 C 9.247 250.291,9.243 323.804,10.362 330.777 C 15.359 361.913,38.409 384.589,70.010 389.456 C 72.597 389.854,82.202 389.971,112.488 389.971 L 151.622 389.971 154.409 389.088 C 173.780 382.955,174.465 356.476,155.452 348.797 L 153.196 347.886 114.258 347.680 C 75.660 347.475,75.293 347.466,72.252 346.609 C 62.831 343.955,55.651 336.776,52.998 327.355 C 52.141 324.314,52.132 323.947,51.927 285.349 L 51.721 246.411 50.810 244.155 C 46.623 233.789,35.901 228.127,25.565 230.825 M364.370 230.647 C 355.498 232.670,347.915 241.574,348.146 249.697 C 348.184 251.052,348.259 251.381,348.339 250.541 C 349.769 235.440,364.333 226.789,377.828 233.024 C 383.196 235.504,387.824 241.203,388.976 246.749 C 389.930 251.346,389.312 329.557,388.286 334.095 C 381.935 362.170,361.855 382.181,333.923 388.269 L 329.794 389.169 289.511 389.289 C 245.678 389.419,246.901 389.475,242.222 387.134 C 226.008 379.023,227.999 355.008,245.369 349.179 L 247.984 348.301 287.316 348.075 C 329.816 347.830,326.988 347.976,332.058 345.774 C 340.425 342.140,347.511 332.451,347.914 324.090 C 347.982 322.684,347.957 321.976,347.859 322.517 C 347.761 323.058,347.483 324.562,347.242 325.860 C 345.297 336.309,335.936 345.194,324.906 347.061 C 321.694 347.605,316.297 347.689,284.535 347.689 C 243.792 347.689,245.701 347.573,241.042 350.340 C 224.210 360.336,228.527 385.698,247.723 389.588 C 252.257 390.506,325.632 390.235,330.973 389.279 C 363.152 383.525,384.901 361.333,389.849 329.204 C 390.781 323.153,390.582 249.073,389.625 246.018 C 386.110 234.787,375.236 228.169,364.370 230.647 M35.053 231.441 C 42.100 232.935,48.070 238.351,50.437 245.399 C 51.304 247.979,51.306 248.064,51.513 287.316 L 51.721 326.647 52.830 329.525 C 56.101 338.011,62.050 343.881,70.365 346.827 L 73.353 347.886 112.488 348.093 C 156.743 348.326,153.811 348.109,159.124 351.546 C 172.453 360.168,171.436 380.429,157.334 387.187 C 152.577 389.466,153.724 389.415,110.300 389.291 L 70.206 389.176 65.928 388.271 C 37.996 382.362,17.244 361.610,11.335 333.679 L 10.430 329.400 10.316 289.306 C 10.238 262.055,10.335 248.567,10.620 247.196 C 12.901 236.209,23.946 229.087,35.053 231.441 " stroke="none" fill="#676767" fill-rule="evenodd"></path><path id="path2" d="M236.947 16.224 L 235.792 17.502 237.070 16.347 C 237.773 15.712,238.348 15.137,238.348 15.069 C 238.348 14.765,238.024 15.033,236.947 16.224 M168.445 30.678 C 168.445 31.652,168.522 32.050,168.616 31.563 C 168.710 31.077,168.710 30.280,168.616 29.794 C 168.522 29.307,168.445 29.705,168.445 30.678 M368.142 29.228 C 368.142 29.296,368.717 29.871,369.420 30.507 L 370.698 31.662 369.543 30.383 C 368.466 29.192,368.142 28.924,368.142 29.228 M162.417 45.133 L 161.062 46.608 162.537 45.252 C 163.348 44.507,164.012 43.843,164.012 43.777 C 164.012 43.477,163.679 43.760,162.417 45.133 M51.319 112.094 C 51.319 131.888,51.367 139.985,51.426 130.088 C 51.484 120.192,51.484 103.997,51.426 94.100 C 51.367 84.204,51.319 92.301,51.319 112.094 M89.071 126.745 C 88.968 127.016,88.930 159.803,88.986 199.607 L 89.088 271.976 89.185 199.316 L 89.282 126.657 103.933 126.549 L 118.584 126.440 103.921 126.347 C 92.483 126.274,89.216 126.362,89.071 126.745 M187.539 126.548 C 192.800 126.610,201.296 126.610,206.419 126.548 C 211.541 126.486,207.237 126.435,196.853 126.436 C 186.470 126.436,182.279 126.486,187.539 126.548 M252.606 126.549 C 262.719 126.607,279.267 126.607,289.381 126.549 C 299.494 126.490,291.219 126.442,270.993 126.442 C 250.767 126.442,242.493 126.490,252.606 126.549 M174.803 129.892 L 173.648 131.170 174.926 130.015 C 175.629 129.380,176.205 128.804,176.205 128.737 C 176.205 128.433,175.880 128.700,174.803 129.892 M156.711 149.164 L 155.556 150.442 156.834 149.287 C 158.025 148.210,158.293 147.886,157.989 147.886 C 157.921 147.886,157.346 148.461,156.711 149.164 M144.518 162.144 L 143.363 163.422 144.641 162.267 C 145.833 161.190,146.100 160.865,145.796 160.865 C 145.729 160.865,145.153 161.441,144.518 162.144 M44.817 162.734 L 43.461 164.208 44.936 162.853 C 45.747 162.108,46.411 161.444,46.411 161.378 C 46.411 161.078,46.078 161.361,44.817 162.734 M138.618 168.437 L 137.463 169.715 138.741 168.560 C 139.933 167.483,140.200 167.158,139.897 167.158 C 139.829 167.158,139.254 167.734,138.618 168.437 M133.112 174.336 L 131.957 175.615 133.235 174.459 C 134.427 173.383,134.694 173.058,134.390 173.058 C 134.323 173.058,133.747 173.633,133.112 174.336 M126.426 181.416 L 125.270 182.694 126.549 181.539 C 127.740 180.462,128.008 180.138,127.704 180.138 C 127.636 180.138,127.061 180.713,126.426 181.416 M354.354 237.070 L 352.999 238.545 354.474 237.189 C 355.847 235.928,356.130 235.595,355.829 235.595 C 355.764 235.595,355.100 236.259,354.354 237.070 M51.319 287.512 C 51.319 307.306,51.367 315.403,51.426 305.506 C 51.484 295.610,51.484 279.415,51.426 269.518 C 51.367 259.621,51.319 267.719,51.319 287.512 M216.716 254.671 C 217.450 255.428,218.139 256.047,218.247 256.047 C 218.355 256.047,217.843 255.428,217.109 254.671 C 216.375 253.913,215.686 253.294,215.578 253.294 C 215.470 253.294,215.982 253.913,216.716 254.671 M263.820 272.845 C 264.309 272.939,265.017 272.935,265.393 272.837 C 265.769 272.738,265.369 272.661,264.503 272.666 C 263.638 272.670,263.330 272.750,263.820 272.845 M94.100 348.377 C 103.997 348.436,120.192 348.436,130.088 348.377 C 139.985 348.319,131.888 348.271,112.094 348.271 C 92.301 348.271,84.204 348.319,94.100 348.377 M269.518 348.377 C 279.415 348.436,295.610 348.436,305.506 348.377 C 315.403 348.319,307.306 348.271,287.512 348.271 C 267.719 348.271,259.621 348.319,269.518 348.377 M236.754 354.671 L 235.398 356.146 236.873 354.790 C 238.246 353.529,238.529 353.196,238.229 353.196 C 238.163 353.196,237.499 353.859,236.754 354.671 M162.217 383.579 L 161.062 384.857 162.340 383.702 C 163.532 382.625,163.799 382.301,163.495 382.301 C 163.428 382.301,162.853 382.876,162.217 383.579 " stroke="none" fill="#3c3c3c" fill-rule="evenodd"></path><path id="path3" d="M30.064 30.383 L 28.909 31.662 30.187 30.507 C 30.890 29.871,31.465 29.296,31.465 29.228 C 31.465 28.924,31.141 29.192,30.064 30.383 M94.690 51.426 C 104.479 51.484,120.497 51.484,130.285 51.426 C 140.074 51.367,132.065 51.319,112.488 51.319 C 92.911 51.319,84.902 51.367,94.690 51.426 M269.548 51.426 C 279.245 51.484,294.997 51.484,304.553 51.426 C 314.109 51.367,306.175 51.319,286.922 51.319 C 267.670 51.319,259.851 51.367,269.548 51.426 M348.271 112.291 C 348.271 131.760,348.319 139.667,348.378 129.862 C 348.436 120.057,348.436 104.128,348.377 94.464 C 348.319 84.800,348.271 92.822,348.271 112.291 M307.762 175.221 C 307.762 202.045,307.809 212.961,307.866 199.478 C 307.924 185.995,307.924 164.048,307.866 150.707 C 307.809 137.366,307.762 148.397,307.762 175.221 M256.242 153.686 L 278.068 153.792 278.172 188.106 L 278.276 222.419 278.273 188.004 L 278.269 153.589 256.342 153.584 L 234.415 153.579 256.242 153.686 M348.271 287.119 C 348.271 306.696,348.319 314.705,348.377 304.916 C 348.436 295.128,348.436 279.110,348.377 269.322 C 348.319 259.533,348.271 267.542,348.271 287.119 " stroke="none" fill="#4c4c4c" fill-rule="evenodd"></path><path id="path4" d="" stroke="none" fill="#444444" fill-rule="evenodd"></path></g></svg>